<svg version="1.1" xmlns="http://www.w3.org/2000/svg" xmlns:xlink="http://www.w3.org/1999/xlink" width="48" height="48"><defs><linearGradient x1="14.66377" y1="14.22989" x2="54.54943" y2="54.98331" gradientUnits="userSpaceOnUse" id="color-1"><stop offset="0" stop-color="#000000" stop-opacity="0.3"></stop><stop offset="1" stop-color="#000000" stop-opacity="0"></stop></linearGradient><filter id="dropshadow-base"><feColorMatrix type="matrix" values="0 0 0 0 0  0 0 0 0 0  0 0 0 0 0  0 0 0 .8 0"></feColorMatrix> <feOffset dx="0" dy="1"></feOffset> <feGaussianBlur stdDeviation="1"></feGaussianBlur> <feComposite in="SourceGraphic"></feComposite></filter><filter id="dropshadow-banner" x="-10%" y="-10%" width="120%" height="130%"><feColorMatrix type="matrix" values="0 0 0 0 0  0 0 0 0 0  0 0 0 0 0  0 0 0 .4 0"></feColorMatrix> <feOffset dx="0" dy="1"></feOffset> <feGaussianBlur stdDeviation="0.5"></feGaussianBlur> <feComposite in="SourceGraphic"></feComposite></filter></defs><g fill="none" fill-rule="nonzero" stroke="none" stroke-width="none" stroke-linecap="butt" stroke-linejoin="miter" stroke-miterlimit="10" stroke-dasharray="" stroke-dashoffset="0" font-family="none" font-weight="none" font-size="none" text-anchor="none" style="mix-blend-mode: normal"><path d="M2,24c0,-12.15026 9.84974,-22 22,-22c12.15026,0 22,9.84974 22,22c0,12.15026 -9.84974,22 -22,22c-12.15026,0 -22,-9.84974 -22,-22z" id="base 1 5" fill="#1976d2" stroke-width="1"></path><path d="M21.01248,33.77011v-1.69808h0.43177l-4.04772,-4.04772c-1.68844,-1.68844 -2.73275,-4.02054 -2.73275,-6.59748c0,-0.21449 0.01791,-0.42533 0.03215,-0.63576h2.13889c0.32318,-3.67662 3.40595,-6.56117 7.16518,-6.56117c1.98559,0 3.78269,0.80475 5.08385,2.10591l15.48534,15.48534c-2.22987,5.86113 -6.89291,10.52275 -12.75499,12.75069z" fill="url(#color-1)" stroke-width="1"></path><path d="M33.33623,21.42682c0,-0.2145 -0.01791,-0.42493 -0.03256,-0.63577h-0.80264h-0.04559h-1.29107c-0.32155,-3.67661 -3.40513,-6.56116 -7.16437,-6.56116c-3.75924,0 -6.84201,2.88455 -7.16518,6.56116h-1.29025h-0.04559h-0.80305c-0.01425,0.21043 -0.03215,0.42127 -0.03215,0.63577c0,4.80324 3.62818,8.75582 8.29303,9.27517v1.37003h-1.94433v1.69809h5.97505v-1.69809h-1.94271v-1.37003c4.66282,-0.51976 8.29141,-4.47193 8.29141,-9.27517zM24,15.66993c3.18005,0 5.7573,2.57766 5.7573,5.75689c0,3.17964 -2.57684,5.75852 -5.7573,5.75852c-3.17964,0 -5.75771,-2.57929 -5.75771,-5.75852c0,-3.17883 2.57806,-5.75689 5.75771,-5.75689zM15.52421,21.65272h1.29066c0.11966,3.86873 3.28669,6.97144 7.18512,6.97144c3.89925,0 7.06628,-3.10271 7.18594,-6.97144h1.28985c-0.12007,4.58182 -3.86466,8.2621 -8.47579,8.2621c-4.61113,0 -8.3549,-3.68028 -8.47579,-8.2621z" fill="none" stroke-width="0"></path><path d="M25.04482,30.70199v1.37003h1.94271v1.69809h-5.97505v-1.69809h1.94433v-1.37003c-4.66486,-0.51936 -8.29303,-4.47193 -8.29303,-9.27517c0,-0.2145 0.01791,-0.42534 0.03215,-0.63577h2.13889c0.32317,-3.67661 3.40594,-6.56116 7.16518,-6.56116c3.75924,0 6.84282,2.88455 7.16437,6.56116h2.1393c0.01465,0.21084 0.03256,0.42127 0.03256,0.63577c0,4.80324 -3.62858,8.75541 -8.29141,9.27517zM18.24229,21.42682c0,3.17923 2.57806,5.75852 5.75771,5.75852c3.18045,0 5.7573,-2.57888 5.7573,-5.75852c0,-3.17923 -2.57725,-5.75689 -5.7573,-5.75689c-3.17964,0 -5.75771,2.57806 -5.75771,5.75689zM24,29.91482c4.61113,0 8.35571,-3.68028 8.47579,-8.2621h-1.28985c-0.11966,3.86873 -3.28669,6.97144 -7.18594,6.97144c-3.89844,0 -7.06546,-3.10271 -7.18512,-6.97144h-1.29066c0.12088,4.58182 3.86466,8.2621 8.47579,8.2621z" fill="#ffffff" stroke-width="0"></path><path d="M2,24c0,-12.15026 9.84974,-22 22,-22c12.15026,0 22,9.84974 22,22c0,12.15026 -9.84974,22 -22,22c-12.15026,0 -22,-9.84974 -22,-22z" id="base 1 1 1" fill="none" stroke-width="1"></path><g fill="#000000" stroke-width="1" font-family="Roboto, sans-serif" font-weight="normal" font-size="14" text-anchor="start"><g id="Layer_4 1 1"></g></g><rect x="2" y="2" width="44" height="22" fill="none" stroke-width="1"></rect><path d="M2,24v-22h44v22z" fill="none" stroke-width="1"></path><path d="M2,24v-22h44v22z" fill="none" stroke-width="1"></path><path d="M2,24v-22h44v22z" fill="none" stroke-width="1"></path><path d="M2,24v-22h44v22z" fill="none" stroke-width="1"></path></g></svg>